<!-- <?xml version="1.0" standalone="no"?> -->
<!DOCTYPE svg >


 <svg  viewBox="0 0 1024 1024" version="1.1" xmlns="http://www.w3.org/2000/svg"  xmlns:xlink="http://www.w3.org/1999/xlink" width="200" height="200">
        <defs>
        <style type="text/css">
            svg:hover #folderaddpath{
                stroke:rgb(122, 252, 245);
                stroke-width: 5px;
                fill:none;
                animation:move 3s linear forwards infinite ;
    
                stroke-dasharray: 60%,40%;
    
            }
            #folderaddpath{
                fill:none;
                stroke:rgb(9, 253, 241);
            }
            @keyframes move{
                0%{
                    /* stroke-dasharray: 0,5000px; */
                    /* stroke-dasharray: 0,100%; */
                    stroke-dashoffset: 0%;
                }
                100%{
                    /* stroke-dasharray: 5000px 500px; */
                    /* stroke-dasharray: 100% 0; */
                    stroke-dashoffset: 100%;
                }
            }</style>
        </defs>
        <path id="folderaddpath" d="M794.1632 481.7408c19.3024 0 34.9184 15.3088 34.9184 34.2016v151.7568h155.2384c19.3536 0 35.0208 15.36 35.0208 34.2016a34.6112 34.6112 0 0 1-35.0208 34.1504l-155.2384-0.0512v151.808c0 18.944-15.616 34.2528-34.9184 34.2528a34.56 34.56 0 0 1-34.9184-34.2528l-0.0512-151.808h-155.1872a34.6112 34.6112 0 0 1-35.0208-34.0992c0-18.8928 15.6672-34.1504 35.0208-34.1504l155.1872-0.0512v-151.7568c0-18.8928 15.6672-34.2016 34.9696-34.2016zM72.5504 102.4l313.1392 0.1024c22.016 1.4336 40.0896 7.168 53.6064 18.944 11.5712 10.1376 20.0704 23.6544 26.5216 41.2672l19.456 59.904a33.5872 33.5872 0 0 1 1.4336 6.4512h502.272c19.3536 0 35.0208 15.3088 35.0208 34.1504v183.296a34.6112 34.6112 0 0 1-35.0208 34.1504 34.6112 34.6112 0 0 1-34.9696-34.1504V297.3696H69.9904v530.8416c0.2048 10.752 0.1024 15.5136 2.56 19.0976 1.8944 2.8672 3.4304 3.4304 7.68 3.584h458.5984c19.3024 0 34.9696 15.2576 34.9696 34.1504a34.6112 34.6112 0 0 1-34.9696 34.1504H80.7424l-5.9904-0.512c-27.4432-4.608-48.128-14.848-60.2624-33.4848-9.728-15.0016-14.1312-33.6896-14.4896-56.4736V263.0144l0.1536-93.2864c1.8432-18.176 7.936-33.792 19.2512-45.824 12.4928-13.3632 29.952-19.968 53.1456-21.504z m2.4064 68.2496c-4.3008 0.256-4.608 1.2288-4.9152 2.4064l-0.0512 56.0128h343.9104l-14.4384-44.544c-2.3552-6.4512-4.3008-10.1888-6.8608-12.1344-2.5088-1.9456-3.7888-1.2288-9.3184-1.6896l-308.3264-0.0512z" ></path>
        </svg>