<svg height="512pt" viewBox="0 0 512.001 512" width="512pt" xmlns="http://www.w3.org/2000/svg"><path d="m352.398438 385.601562c9.449218 0 17.132812-7.6875 17.132812-17.132812 0-9.449219-7.683594-17.136719-17.132812-17.136719-9.445313 0-17.132813 7.6875-17.132813 17.136719 0 9.445312 7.6875 17.132812 17.132813 17.132812zm0 0"/><path d="m151.5625 176.734375c9.449219 0 17.132812-7.6875 17.132812-17.136719 0-9.445312-7.683593-17.132812-17.132812-17.132812-9.445312 0-17.132812 7.6875-17.132812 17.132812.003906 9.449219 7.6875 17.136719 17.132812 17.136719zm0 0"/><path d="m110.332031 335.265625h98.53125v50.335937h-98.53125zm0 0"/><path d="m335.265625 126.402344h50.335937v50.332031h-50.335937zm0 0"/><path d="m456.832031 0h-217.96875v247.96875c0 13.875 11.292969 25.164062 25.167969 25.164062h247.96875v-217.964843c0-30.417969-24.746094-55.167969-55.167969-55.167969zm-24.101562 168.699219c8.285156 0 15 6.71875 15 15 0 8.285156-6.714844 15-15 15h-18.851563c-1.417968 2.691406-3.621094 4.898437-6.3125 6.3125v18.855469c0 8.285156-6.714844 15-15 15s-15-6.714844-15-15v-17.132813h-34.265625v17.132813c0 8.285156-6.71875 15-15 15-8.285156 0-15-6.714844-15-15v-18.855469c-2.691406-1.414063-4.898437-3.621094-6.3125-6.3125h-18.855469c-8.28125 0-15-6.714844-15-15 0-8.28125 6.71875-15 15-15h17.132813v-34.265625h-17.132813c-8.28125 0-15-6.714844-15-15s6.71875-15 15-15h18.855469c1.414063-2.691406 3.621094-4.894532 6.3125-6.3125v-18.855469c0-8.28125 6.714844-15 15-15 8.28125 0 15 6.71875 15 15v17.136719h34.265625v-17.136719c0-8.28125 6.714844-15 15-15s15 6.71875 15 15v18.855469c2.691406 1.417968 4.898438 3.621094 6.3125 6.3125h18.851563c8.285156 0 15 6.71875 15 15 0 8.285156-6.714844 15-15 15h-17.128907v34.265625zm0 0"/><path d="m208.863281 247.96875v-247.96875h-153.699219c-30.417968 0-55.164062 24.75-55.164062 55.167969v57.300781h79.265625c8.285156 0 15 6.714844 15 15 0 8.28125-6.714844 15-15 15h-79.265625v34.265625h79.265625c8.285156 0 15 6.714844 15 15s-6.714844 15-15 15h-79.265625v34.265625h79.265625c8.285156 0 15 6.714844 15 15s-6.714844 15-15 15h-79.265625v185.832031c0 30.421875 24.746094 55.167969 55.164062 55.167969h185.835938v-79.265625c0-8.285156 6.714844-15 15-15s15 6.714844 15 15v79.265625h34.265625v-79.265625c0-8.285156 6.714844-15 15-15s15 6.714844 15 15v79.265625h34.269531v-79.265625c0-8.285156 6.714844-15 15-15 8.28125 0 15 6.714844 15 15v79.265625h57.296875c30.421875 0 55.167969-24.746094 55.167969-55.167969v-153.699219h-247.96875c-30.417969 0-55.167969-24.746093-55.167969-55.164062zm-135.054687-174.160156c-2.800782 2.792968-6.660156 4.390625-10.613282 4.390625-3.949218 0-7.808593-1.597657-10.597656-4.390625-2.800781-2.789063-4.402344-6.65625-4.402344-10.609375 0-3.949219 1.601563-7.808594 4.402344-10.609375 2.789063-2.789063 6.648438-4.390625 10.597656-4.390625 3.953126 0 7.820313 1.601562 10.613282 4.390625 2.789062 2.800781 4.386718 6.660156 4.386718 10.609375 0 3.953125-1.597656 7.8125-4.386718 10.609375zm0 385.601562c-2.792969 2.789063-6.660156 4.390625-10.613282 4.390625-3.9375 0-7.808593-1.601562-10.605468-4.390625-2.792969-2.800781-4.394532-6.660156-4.394532-10.609375s1.601563-7.8125 4.394532-10.609375c2.796875-2.789062 6.667968-4.390625 10.605468-4.390625 3.953126 0 7.820313 1.601563 10.613282 4.390625 2.789062 2.800782 4.386718 6.660156 4.386718 10.609375s-1.597656 7.808594-4.386718 10.609375zm77.753906-346.941406c25.992188 0 47.132812 21.144531 47.132812 47.132812 0 25.988282-21.140624 47.132813-47.132812 47.132813-25.988281 0-47.132812-21.144531-47.132812-47.132813.003906-25.992187 21.144531-47.132812 47.132812-47.132812zm87.300781 288.132812c0 8.28125-6.714843 15-15 15h-128.53125c-8.285156 0-15-6.71875-15-15v-80.335937c0-8.28125 6.714844-15 15-15h128.53125c8.285157 0 15 6.71875 15 15zm199.332031 37.589844c2.792969-2.789062 6.652344-4.390625 10.601563-4.390625s7.820313 1.601563 10.609375 4.390625c2.789062 2.800782 4.390625 6.660156 4.390625 10.609375s-1.601563 7.808594-4.390625 10.609375c-2.800781 2.789063-6.660156 4.390625-10.609375 4.390625-3.941406 0-7.808594-1.601562-10.601563-4.390625-2.800781-2.800781-4.398437-6.660156-4.398437-10.609375s1.601563-7.8125 4.398437-10.609375zm-85.796874-116.859375c25.988281 0 47.132812 21.144531 47.132812 47.136719 0 25.988281-21.140625 47.132812-47.132812 47.132812-25.988282 0-47.132813-21.144531-47.132813-47.132812 0-25.992188 21.144531-47.136719 47.132813-47.136719zm0 0"/></svg>