<?xml version="1.0" standalone="no"?>
<!DOCTYPE svg PUBLIC "-//W3C//DTD SVG 1.1//EN" "http://www.w3.org/Graphics/SVG/1.1/DTD/svg11.dtd">
<svg  viewBox="0 0 1317 1024" version="1.1" xmlns="http://www.w3.org/2000/svg"  xmlns:xlink="http://www.w3.org/1999/xlink" width="257.2265625" height="200">
    <defs>
    <style type="text/css">
    g:hover{
        stroke:red;
        fill:none;
    }
    </style>
    </defs>
    <g>
    <path d="M414.730226 749.92632a33.98988 33.98988 0 0 1-24.101553-9.982068L49.761207 399.076787A34.0751 34.0751 0 0 1 39.769197 374.969552a34.052375 34.052375 0 0 1 9.99201-24.100133L390.628673 10.000533c13.309898-13.315579 34.89889-13.315579 48.208788 0 13.309898 13.309898 13.309898 34.893209 0 48.208788L122.060186 374.953928l316.777275 316.733245a34.090723 34.090723 0 0 1-24.107235 58.193697v0.04545z m0 0" ></path>
    <path d="M1062.350289 1022.623702c-15.629294-0.005681-29.250244-10.646782-33.028318-25.810209C867.782335 350.724545 118.452552 408.297559 110.890723 408.946649c-18.758278 1.626276-35.280959-12.256014-36.905814-31.014292-1.631957-18.758278 12.256014-35.280959 31.014292-36.905815 8.149845-0.788282 815.051221-62.566889 990.379405 639.247226a34.065158 34.065158 0 0 1-33.089392 42.359876l0.061075-0.009942z m0 0" ></path>
    </g>
</svg>